<svg xmlns="http://www.w3.org/2000/svg" viewBox="0 0 64 64" role="img" aria-label="Adobe PDF">
  <path fill="#ed1c24" d="M34.82 7.5c-2.76 0-4.58 2.82-5.4 8.38-.55 3.77-.37 8.64.52 14.05-3.36 7.85-7.46 15.52-11.33 21.18-6.1 2.05-10.04 4.53-10.54 7.08-.24 1.22.25 2.31 1.33 2.98 2.78 1.72 7.82-1.74 13.56-9.23 5.56-1.65 12.1-2.96 18.26-3.65 4.99 4.06 9.16 5.84 11.83 5.04 1.26-.38 2.08-1.32 2.25-2.57.25-1.87-1.28-3.41-4.55-4.59-2.32-.83-5.45-1.3-9.05-1.35-3.35-3.02-6.42-7.02-8.66-11.29 2.1-5.33 3.5-10.11 3.95-13.52.77-5.79-.19-9.95-2.55-11.14a3.28 3.28 0 0 0-1.62-.37Zm-.33 4.44c.28.63.62 2.79.05 7.1-.27 2.02-.91 4.53-1.86 7.29-.61-4.25-.67-7.72-.18-10.13.49-2.4 1.35-3.77 1.99-4.26Zm-2.56 26.16a39.28 39.28 0 0 0 4.85 6.97c-3.73.55-7.62 1.35-11.27 2.32a117.2 117.2 0 0 0 6.42-9.29Zm14.45 10.36c1.96.18 3.54.5 4.55.92.45.19.74.36.92.49-.77.06-2.58-.25-5.47-1.41Zm-32.3 6.98c-1.27 1.38-2.22 2.12-2.72 2.36.31-.5 1.15-1.3 2.72-2.36Z"/>
  <path fill="#ed1c24" d="M32.22 30.36c1.84 5.38 5.7 10.84 10.28 14.99l-1.58 2.55c-5.95-4.47-10.56-10.78-12.75-17.32l4.05-.22Zm-2.34-.52 3.36 2.03c-2.27 5.46-5.76 11.98-10.07 17.94l-3.37.98c4.11-5.77 7.67-12.88 10.08-20.95Z"/>
</svg>
